<?xml version="1.0" standalone="no"?>
<!DOCTYPE svg PUBLIC "-//W3C//DTD SVG 20010904//EN"
 "http://www.w3.org/TR/2001/REC-SVG-20010904/DTD/svg10.dtd">
<svg version="1.0" xmlns="http://www.w3.org/2000/svg"
 width="2480.000000pt" height="3508.000000pt" viewBox="0 0 2480.000000 3508.000000"
 preserveAspectRatio="xMidYMid meet">

<g transform="translate(0.000000,3508.000000) scale(0.100000,-0.100000)"
fill="#000000" stroke="none">
<path d="M5767 31553 c-4 -3 -7 -4335 -7 -9625 l0 -9618 1865 0 1865 0 0 3655
0 3655 2855 0 2855 0 0 -4692 c0 -3102 -4 -4742 -10 -4838 -57 -795 -256
-1475 -616 -2102 -101 -176 -233 -370 -333 -490 -391 -467 -1067 -793 -1978
-952 -752 -132 -1785 -157 -2618 -65 -357 39 -498 65 -1158 209 -214 47 -382
79 -386 74 -13 -15 -573 -2956 -564 -2964 4 -4 118 -46 253 -94 174 -61 298
-97 425 -125 729 -160 1459 -254 2248 -292 287 -13 1365 -7 1627 10 1231 79
2070 223 2885 496 632 211 1117 455 1560 785 421 313 709 628 1059 1158 581
880 956 1851 1150 2982 56 322 92 630 128 1100 9 117 13 1715 15 6553 l3 6397
-4700 0 -4700 0 0 2855 0 2855 4900 0 4900 0 0 1540 0 1540 -6758 0 c-3717 0
-6762 -3 -6765 -7z"/>
<path d="M5938 10482 l-217 -186 62 -66 c34 -36 69 -65 77 -64 13 0 422 285
460 321 12 11 3 25 -70 98 -47 47 -87 85 -90 84 -3 0 -103 -84 -222 -187z"/>
<path d="M10397 10499 c-49 -26 -81 -91 -71 -145 25 -134 215 -169 292 -54 20
29 23 44 20 88 -5 56 -29 91 -80 118 -39 20 -116 17 -161 -7z"/>
<path d="M4951 10075 c-180 -33 -312 -144 -362 -306 -23 -74 -26 -229 -5 -305
41 -156 174 -282 336 -318 152 -35 369 -15 502 46 l49 23 -35 73 c-20 39 -37
72 -40 72 -3 0 -51 -12 -107 -26 -280 -72 -461 36 -461 276 0 164 78 263 231
290 35 6 87 9 115 5 47 -6 170 -35 207 -50 13 -5 25 11 53 71 20 42 35 78 33
80 -1 2 -44 17 -94 34 -148 49 -281 60 -422 35z"/>
<path d="M5965 10078 c-136 -26 -255 -120 -322 -254 l-38 -78 0 -135 c0 -109
4 -146 19 -186 48 -127 146 -223 273 -267 61 -21 86 -23 238 -23 128 0 189 4
245 18 41 9 80 21 87 25 18 11 -25 165 -43 158 -38 -15 -201 -28 -293 -24
-162 7 -244 52 -271 146 -5 20 -10 43 -10 50 0 9 75 12 340 12 l340 0 0 78 c0
92 -20 190 -51 258 -34 73 -131 166 -201 192 -104 39 -213 49 -313 30z m172
-183 c81 -24 143 -108 143 -192 l0 -23 -214 0 -213 0 7 38 c16 88 66 149 147
178 49 17 69 17 130 -1z"/>
<path d="M7106 10074 c-37 -8 -91 -26 -119 -40 -28 -13 -52 -24 -54 -24 -1 0
-9 14 -18 30 -15 30 -16 30 -105 30 l-90 0 0 -460 0 -460 125 0 125 0 2 358 3
357 60 13 c76 16 187 9 262 -18 31 -11 58 -18 60 -16 9 9 51 202 45 207 -35
32 -200 45 -296 23z"/>
<path d="M7840 10083 c-33 -4 -250 -53 -250 -56 1 -13 40 -150 43 -153 2 -2
41 6 87 17 108 28 277 24 327 -6 38 -22 61 -65 69 -128 l6 -45 -53 -6 c-30 -3
-98 -7 -152 -10 -204 -11 -334 -72 -386 -180 -25 -51 -28 -159 -7 -210 23 -56
81 -111 148 -141 121 -54 324 -44 436 21 24 14 45 24 46 22 1 -1 7 -15 14 -30
12 -28 12 -28 112 -28 l100 0 0 310 c0 319 -6 382 -42 453 -28 56 -93 114
-153 136 -85 32 -233 46 -345 34z m290 -632 l0 -98 -52 -22 c-111 -46 -245
-36 -293 21 -27 32 -33 84 -14 120 23 43 136 71 317 77 l42 1 0 -99z"/>
<path d="M11195 10079 c-113 -19 -197 -62 -267 -137 -83 -88 -118 -188 -118
-332 0 -299 191 -479 507 -480 54 0 103 7 145 20 34 11 66 20 71 20 4 0 7
-115 7 -255 l0 -255 125 0 125 0 0 705 0 705 -90 0 c-87 0 -91 -1 -100 -25 -5
-14 -12 -25 -14 -25 -3 0 -29 9 -58 21 -103 41 -230 56 -333 38z m293 -194
l52 -16 -2 -257 -3 -257 -40 -20 c-60 -30 -211 -29 -280 3 -102 47 -137 104
-143 238 -8 174 49 275 178 315 44 13 184 10 238 -6z"/>
<path d="M13515 10078 c-136 -26 -255 -120 -322 -254 l-38 -78 0 -135 c0 -109
4 -146 19 -186 48 -127 146 -223 273 -267 61 -21 86 -23 238 -23 128 0 189 4
245 18 41 9 80 21 87 25 18 11 -25 165 -43 158 -38 -15 -201 -28 -293 -24
-162 7 -244 52 -271 146 -5 20 -10 43 -10 50 0 9 75 12 340 12 l340 0 0 78 c0
92 -20 190 -51 258 -34 73 -131 166 -201 192 -104 39 -213 49 -313 30z m172
-183 c81 -24 143 -108 143 -192 l0 -23 -214 0 -213 0 7 38 c16 88 66 149 147
178 49 17 69 17 130 -1z"/>
<path d="M8961 10054 c-46 -13 -91 -29 -101 -34 -29 -16 -38 -12 -55 20 -15
30 -16 30 -105 30 l-90 0 0 -460 0 -460 125 0 125 0 0 345 0 344 68 21 c164
51 246 36 288 -54 23 -50 24 -57 24 -353 l0 -303 126 0 126 0 -4 344 -3 344
70 22 c154 50 240 34 283 -50 21 -43 22 -53 22 -352 l0 -308 126 0 125 0 -3
338 c-4 321 -5 340 -27 407 -45 136 -128 185 -311 185 -104 0 -201 -20 -306
-63 l-60 -24 -34 29 c-50 41 -118 58 -229 57 -72 0 -117 -6 -180 -25z"/>
<path d="M10360 9610 l0 -460 125 0 125 0 0 460 0 460 -125 0 -125 0 0 -460z"/>
<path d="M12040 9783 c1 -199 5 -312 14 -365 13 -73 49 -165 78 -198 81 -96
306 -119 488 -51 47 18 92 34 101 37 11 4 20 -4 29 -25 l12 -31 89 0 89 0 0
460 0 460 -125 0 -125 0 -2 -347 -3 -348 -65 -22 c-92 -31 -204 -32 -250 0
-19 12 -43 38 -54 57 -20 33 -21 53 -24 348 l-3 312 -125 0 -124 0 0 -287z"/>
</g>
</svg>
